<svg xmlns="http://www.w3.org/2000/svg" xmlns:xlink="http://www.w3.org/1999/xlink" width="175" height="17.154" viewBox="0 0 175 17.154">
  <defs>
    <clipPath id="clip-path">
      <rect id="사각형_306" data-name="사각형 306" width="175" height="17.154" transform="translate(0 0)" fill="none"/>
    </clipPath>
  </defs>
  <g id="logo" transform="translate(0 0)">
    <g id="그룹_454" data-name="그룹 454" transform="translate(0 0)" clip-path="url(#clip-path)">
      <path id="패스_594" data-name="패스 594" d="M169.613,20.73a1.116,1.116,0,0,1-1.116-1.116V14.629a1.116,1.116,0,0,1,2.233,0v4.984a1.116,1.116,0,0,1-1.116,1.116" transform="translate(-116.256 -9.323)" fill="#ec1b31"/>
      <path id="패스_595" data-name="패스 595" d="M18.976,17.358a1.116,1.116,0,0,1-1.116-1.116v-8.2a5.38,5.38,0,0,0-5.376-5.374H7.607A5.382,5.382,0,0,0,2.231,8.042v8.2a1.116,1.116,0,1,1-2.231,0v-8.2A7.615,7.615,0,0,1,7.607.436h4.877a7.615,7.615,0,0,1,7.607,7.606v8.2a1.116,1.116,0,0,1-1.115,1.116" transform="translate(0 -0.301)" fill="#231f20"/>
      <path id="패스_596" data-name="패스 596" d="M152.184,17.358H147.3a7.614,7.614,0,0,1-7.6-7.607v-8.2a1.116,1.116,0,1,1,2.231,0v8.2a5.378,5.378,0,0,0,5.372,5.374h4.88a5.382,5.382,0,0,0,5.376-5.374v-8.2a1.116,1.116,0,1,1,2.231,0v8.2a7.616,7.616,0,0,1-7.607,7.607" transform="translate(-96.388 -0.301)" fill="#231f20"/>
      <path id="패스_597" data-name="패스 597" d="M90.241,2.354H75.735a1.116,1.116,0,0,1,0-2.232H90.241a1.116,1.116,0,1,1,0,2.232" transform="translate(-51.485 -0.084)" fill="#231f20"/>
      <path id="패스_598" data-name="패스 598" d="M90.241,26.358H75.735a1.116,1.116,0,0,1,0-2.232H90.241a1.116,1.116,0,1,1,0,2.232" transform="translate(-51.485 -16.646)" fill="#231f20"/>
      <path id="패스_599" data-name="패스 599" d="M90.241,50.363H75.735a1.115,1.115,0,0,1,0-2.231H90.241a1.115,1.115,0,1,1,0,2.231" transform="translate(-51.485 -33.209)" fill="#231f20"/>
      <path id="패스_600" data-name="패스 600" d="M313.087,2.672l-9.128,13.719a.913.913,0,0,1-.4.382,1.266,1.266,0,0,1-.549.112,1.408,1.408,0,0,1-.861-.3.945.945,0,0,1-.4-.8,1.358,1.358,0,0,1,.036-.291.815.815,0,0,1,.165-.329l-.019.019L311.477.9a2.066,2.066,0,0,1,.706-.668A1.761,1.761,0,0,1,313.051,0a1.861,1.861,0,0,1,.849.22,2,2,0,0,1,.742.677l9.568,14.249h-.019a1.189,1.189,0,0,1,.255.659.908.908,0,0,1-.394.768,1.385,1.385,0,0,1-.851.293,1.322,1.322,0,0,1-.564-.129.985.985,0,0,1-.441-.4v.019Z" transform="translate(-208.193 0)" fill="#231f20"/>
      <path id="패스_601" data-name="패스 601" d="M380.36,8.335a4.391,4.391,0,0,1,.7.924,1.985,1.985,0,0,1,.3,1l-.017,5.909a1.049,1.049,0,0,1-1.209,1.024q-1.244,0-1.244-1.041V10.054l-7.885-7.9a.972.972,0,0,1-.327-.678.954.954,0,0,1,.382-.741,1.323,1.323,0,0,1,.861-.319,1.478,1.478,0,0,1,.42.063.957.957,0,0,1,.4.247Zm7.1-7.592a1.028,1.028,0,0,1,.356-.237,1.088,1.088,0,0,1,.394-.073,1.235,1.235,0,0,1,.5.1,1.454,1.454,0,0,1,.411.274,1.247,1.247,0,0,1,.284.385.983.983,0,0,1,.1.429.763.763,0,0,1-.255.531L383.545,7.9a1.079,1.079,0,0,1-.789.327,1.248,1.248,0,0,1-.848-.327,1,1,0,0,1-.047-1.52Z" transform="translate(-255.758 -0.286)" fill="#231f20"/>
      <path id="패스_602" data-name="패스 602" d="M518.189,4.668q0-2.14-4.044-2.14H502c-.695,0-1.045-.318-1.045-.952A.922.922,0,0,1,502,.534h11.761q6.88,0,6.878,4.279V6.606q0,3.951-6.328,3.952h-6.33l10.756,4.608a.855.855,0,0,1,.422.367,1.056,1.056,0,0,1,.126.5,1.361,1.361,0,0,1-.3.833.922.922,0,0,1-.759.392.906.906,0,0,1-.42-.112l-13.74-6.328a.98.98,0,0,1-.475-.4,1.142,1.142,0,0,1-.165-.586,1.234,1.234,0,0,1,.348-.842,1.265,1.265,0,0,1,.987-.385h9.787q3.639,0,3.641-1.774Z" transform="translate(-345.64 -0.368)" fill="#231f20"/>
      <path id="패스_603" data-name="패스 603" d="M454.938,2.354h-14.5a1.116,1.116,0,1,1,0-2.232h14.5a1.116,1.116,0,1,1,0,2.232" transform="translate(-303.111 -0.084)" fill="#231f20"/>
      <path id="패스_604" data-name="패스 604" d="M454.938,26.358h-14.5a1.116,1.116,0,1,1,0-2.232h14.5a1.116,1.116,0,1,1,0,2.232" transform="translate(-303.111 -16.646)" fill="#231f20"/>
      <path id="패스_605" data-name="패스 605" d="M454.938,50.363h-14.5a1.115,1.115,0,1,1,0-2.231h14.5a1.115,1.115,0,1,1,0,2.231" transform="translate(-303.111 -33.209)" fill="#231f20"/>
      <path id="패스_606" data-name="패스 606" d="M257.117,17.358H245.366a4.063,4.063,0,0,1-4.055-4.057V1.552a1.116,1.116,0,0,1,2.233,0V13.3a1.825,1.825,0,0,0,1.822,1.824h11.751a1.116,1.116,0,0,1,0,2.233" transform="translate(-166.495 -0.301)" fill="#231f20"/>
    </g>
  </g>
</svg>
